<?xml version="1.0" encoding="utf-8"?>
<!-- Generator: Adobe Illustrator 26.0.1, SVG Export Plug-In . SVG Version: 6.00 Build 0)  -->
<svg version="1.1"
	 id="svg2" inkscape:output_extension="org.inkscape.output.svg.inkscape" sodipodi:docname="compass.svg" xmlns:cc="http://creativecommons.org/ns#" xmlns:dc="http://purl.org/dc/elements/1.1/" xmlns:inkscape="http://www.inkscape.org/namespaces/inkscape" xmlns:rdf="http://www.w3.org/1999/02/22-rdf-syntax-ns#" xmlns:sodipodi="http://sodipodi.sourceforge.net/DTD/sodipodi-0.dtd" xmlns:svg="http://www.w3.org/2000/svg"
	 xmlns="http://www.w3.org/2000/svg" xmlns:xlink="http://www.w3.org/1999/xlink" x="0px" y="0px" viewBox="0 0 30 30"
	 style="enable-background:new 0 0 30 30;" xml:space="preserve">
<style type="text/css">
	.st0{fill:#1A1A1A;stroke:#D4D4D4;stroke-miterlimit:3.8919;}
	.st1{fill:#FFDD00;}
</style>
<sodipodi:namedview  bordercolor="#666666" borderopacity="1.0" id="base" inkscape:current-layer="layer1" inkscape:cx="15.344828" inkscape:cy="14.482759" inkscape:document-units="px" inkscape:pageopacity="0.0" inkscape:pageshadow="2" inkscape:window-height="1029" inkscape:window-maximized="0" inkscape:window-width="656" inkscape:window-x="0" inkscape:window-y="19" inkscape:zoom="10.276087" pagecolor="#ffffff" showgrid="false">
	</sodipodi:namedview>
<g id="Слой_2">
</g>
<g id="layer1" transform="translate(0,-1022.3622)" inkscape:groupmode="layer" inkscape:label="Capa 1">
	
		<path id="path16617-6-6_00000139264889285942271200000009350838182354149509_" sodipodi:cx="15.16226" sodipodi:cy="16.56851" sodipodi:rx="14.008413" sodipodi:ry="14.008413" sodipodi:type="arc" class="st0" d="
		M345.3,956.1"/>
	<path id="path28655-4" inkscape:connector-curvature="0" class="st1" d="M8,1025.3v2.2H5l-0.9,1v4.9l6,7h3.9v5.2H12v1
		c0,0-1-0.1-1,0v2.8h4H19v-2.8c0-0.1-1,0-1,0v-1h-2v-5.2H20l6-7v-4.9l-0.9-1h-3v-2.2h-7H8z M6,1029.4H8c0,0-0.1,3-0.1,3l3.7,6h-1.5
		l-4.2-6.2V1029.4z M21.9,1029.4H24v2.8l-4.2,6.2h-1.5l3.7-6C22,1032.4,21.9,1029.5,21.9,1029.4L21.9,1029.4z"/>
</g>
</svg>
