<?xml version="1.0" encoding="utf-8"?>
<!-- Generator: Adobe Illustrator 26.0.1, SVG Export Plug-In . SVG Version: 6.00 Build 0)  -->
<svg version="1.1" id="Слой_1" xmlns="http://www.w3.org/2000/svg" xmlns:xlink="http://www.w3.org/1999/xlink" x="0px" y="0px"
	 viewBox="0 0 256 256" style="enable-background:new 0 0 256 256;" xml:space="preserve">
<style type="text/css">
	.st0{fill:#FFDD00;}
</style>
<desc>Created with Fabric.js 1.7.22</desc>
<g transform="translate(128 128) scale(0.72 0.72)">
	<g transform="translate(-175.05 -175.05000000000004) scale(3.89 3.89)">
		<path class="st0" d="M90,2c0-1.1-0.9-2-2-2H69.3c-1.8,0-2.7,2.2-1.4,3.4l5.8,5.8L39.9,43L28.1,31.2c-1.7-1.5-4.5-5.9-7.1-3.2
			c0,0-20.2,20.2-20.2,20.2c-1.1,1.1-1.1,2.8,0,3.9c1.7,1.5,4.5,5.9,7.1,3.2c0,0,15.1-15.1,15.1-15.1s15,15,15,15
			c1.1,1.1,2.8,1.1,3.9,0l1.6-1.6c0.1-0.1,37.1-37.1,37.3-37.3l5.8,5.8c1.3,1.3,3.4,0.4,3.4-1.4V2z"/>
		<path class="st0" d="M65.6,37.8v49.5c0,1.5,1.2,2.8,2.8,2.8h8.8c1.5,0,2.8-1.2,2.8-2.8V23.5L65.6,37.8z"/>
		<path class="st0" d="M47.1,56.3v30.9c0,1.5,1.2,2.8,2.8,2.8h8.8c1.5,0,2.8-1.2,2.8-2.8V42L47.1,56.3z"/>
		<path class="st0" d="M39.9,60.5c-1.9,0-3.8-0.8-5.1-2.1l-6.1-6.1v35c0,1.5,1.2,2.8,2.8,2.8h8.8c1.5,0,2.8-1.2,2.8-2.8V59.8
			C42,60.3,40.9,60.5,39.9,60.5z"/>
		<path class="st0" d="M22.9,46.6L11.1,58.5c-0.3,0.3-0.6,0.6-1,0.8v28c0,1.5,1.2,2.8,2.8,2.8h8.8c1.5,0,2.8-1.2,2.8-2.8V48
			L22.9,46.6z"/>
	</g>
</g>
</svg>
