<?xml version="1.0" encoding="utf-8"?>
<!-- Generator: Adobe Illustrator 26.0.1, SVG Export Plug-In . SVG Version: 6.00 Build 0)  -->
<svg version="1.1" id="Capa_1" xmlns="http://www.w3.org/2000/svg" xmlns:xlink="http://www.w3.org/1999/xlink" x="0px" y="0px"
	 viewBox="0 0 488.8 488.8" style="enable-background:new 0 0 488.8 488.8;" xml:space="preserve">
<style type="text/css">
	.st0{fill:#FFDD15;}
</style>
<g>
	<g>
		<path class="st0" d="M394.4,294.1c-1.4-1.8-9.3-11-25.1-17c-13.8-4.3-47.9-15.6-66.7-29.1c1.2-1.6,2.4-3.3,3.6-5.1
			c15.4-23,23.9-53.9,23.9-87.1c0-5.5-0.2-10.6-0.5-15.4c34.2-6.8,56.2-17.7,56.2-29.9c0-14-29-26.2-71.9-32.6
			c-1.1-6.9-1.8-14.6-1.8-22.7c0-30.5-9.1-55.3-34.4-55.3c-28.9,0-22.9,34.1-33.4,35.4C233.9,34.1,239.9,0,211,0
			c-25.4,0-34.4,24.8-34.4,55.3c0,8.1-0.7,15.8-1.8,22.7c-42.9,6.4-71.9,18.6-71.9,32.6c0,12.2,22.1,23,56.2,29.9
			c-0.4,4.8-0.5,10-0.5,15.4c0,33.2,8.5,64.1,23.9,87.1c1.2,1.7,2.4,3.4,3.6,5.1c-18.8,13.5-52.9,24.8-66.7,29.1
			c-15.8,6-23.7,15.2-25.1,17C65.3,337.2,62,433.9,62,434.9c0.3,12.9,4.1,17.3,5.4,17.8c64,28.5,139.3,35.9,177,36.1
			c37.7-0.1,112.9-7.6,177-36.1c1.3-0.5,5.1-4.9,5.4-17.8C426.7,433.9,423.4,337.2,394.4,294.1z M168.7,86.9c-0.2,0.7-0.3,1.3-0.3,2
			c0,12.7,34,23.1,75.9,23.1s75.9-10.3,75.9-23.1c0-0.7-0.1-1.3-0.3-2c5.7,3.5,8.9,7.4,8.9,11.5c0,14.2-37.9,25.7-84.6,25.7
			s-84.6-11.5-84.6-25.7C159.8,94.2,163,90.3,168.7,86.9z M170.4,155.9c0-4.7,0.1-9.1,0.4-13.3c21.4,3.5,46.6,5.5,73.6,5.5
			c27,0,52.1-2,73.6-5.5c0.3,4.2,0.4,8.7,0.4,13.3c0,62.9-32.5,112.2-74,112.2C202.9,268.1,170.4,218.8,170.4,155.9z"/>
		<path class="st0" d="M239.7,163.3h9.4c1.4,18.3,16.2,32.6,34.3,32.6c18.1,0,33-14.4,34.4-32.6h0v-0.1c0.1-0.9,0.1-1.8,0.1-2.7
			h-0.1v-5.2H170.9v8h0.1c1.4,18.3,16.2,32.6,34.3,32.6C223.4,195.9,238.3,181.6,239.7,163.3z"/>
	</g>
</g>
</svg>
